<svg width="34" height="33" viewBox="0 0 34 33" fill="none" xmlns="http://www.w3.org/2000/svg">
<g clip-path="url(#clip0_21_37)">
<path d="M12.75 26.125C5.66665 28.1875 5.66665 22.6875 2.83331 22M22.6666 30.25V24.9287C22.7198 24.2731 22.6285 23.614 22.3989 22.9952C22.1693 22.3764 21.8066 21.8122 21.335 21.34C25.7833 20.8587 30.4583 19.2225 30.4583 11.715C30.4579 9.79524 29.6971 7.94912 28.3333 6.55873C28.9791 4.87917 28.9334 3.02271 28.2058 1.37498C28.2058 1.37498 26.5341 0.893725 22.6666 3.40998C19.4197 2.55586 15.997 2.55586 12.75 3.40998C8.88248 0.893725 7.21081 1.37498 7.21081 1.37498C6.48318 3.02271 6.43752 4.87917 7.08331 6.55873C5.70933 7.95944 4.94772 9.82224 4.95831 11.7562C4.95831 19.2087 9.63331 20.845 14.0816 21.3812C13.6156 21.8487 13.2561 22.4062 13.0267 23.0174C12.7972 23.6286 12.703 24.2798 12.75 24.9287V30.25" stroke="#FF0004" stroke-width="4" stroke-linecap="round" stroke-linejoin="round"/>
</g>
<defs>
<clipPath id="clip0_21_37">
<rect width="34" height="33" fill="white"/>
</clipPath>
</defs>
</svg>
